<?xml version="1.0" encoding="utf-8"?>
<!-- Generator: Adobe Illustrator 27.0.0, SVG Export Plug-In . SVG Version: 6.00 Build 0)  -->
<svg version="1.1" id="Layer_1" xmlns="http://www.w3.org/2000/svg" xmlns:xlink="http://www.w3.org/1999/xlink" x="0px" y="0px"
	 viewBox="0 0 500 500" style="enable-background:new 0 0 500 500;" xml:space="preserve">
<style type="text/css">
	.st0{clip-path:url(#SVGID_00000085209069535827124640000004639851165818374533_);}
	.st1{fill:#FF7A00;}
</style>
<g>
	<defs>
		<rect id="SVGID_1_" x="2" y="2" width="496" height="496"/>
	</defs>
	<clipPath id="SVGID_00000158016203153286216750000008600430613988455815_">
		<use xlink:href="#SVGID_1_"  style="overflow:visible;"/>
	</clipPath>
	<g style="clip-path:url(#SVGID_00000158016203153286216750000008600430613988455815_);">
		<g>
			<path class="st1" d="M498,310.1c-2.5,5.6-7,7.4-12.8,7.4c-17.1-0.2-34.2,0-51.3-0.1c-9.6,0-12.8-3.3-12.8-12.9
				c0-17.1,0-34.2,0-51.3c0-9.6,3.3-12.8,12.8-12.9h15.4c-3-90.4-73.5-170.7-160.6-186c0,4.4,0.1,8.7,0,13
				C288.4,75.2,284.9,79,277,79c-17.9,0.2-35.8,0.2-53.7,0c-8.1-0.1-11.6-3.8-11.8-12c-0.1-4.2,0-8.3,0-12.6
				c-79.1,13-156.2,87.3-160.8,186H67c8.3,0.1,11.9,3.5,12,11.6c0.1,17.9,0.1,35.8,0,53.8c0,8-3.6,11.5-11.6,11.6
				c-17.9,0.1-35.8,0.1-53.7,0c-8,0-11.6-3.7-11.6-11.6C2,287.8,2,269.9,2.1,252c0-7.9,3.7-11.5,11.6-11.6c5.6-0.1,11.3,0,17.3,0
				c2.4-40.9,14.3-78.3,37-112.2c22.7-33.9,52.4-59.2,90.3-77.4H79v15.1c0,10.1-3.2,13.2-13.4,13.2H15.2C5.2,79.1,2,75.8,2,65.6
				C2,49,2.2,32.4,1.9,15.7C1.8,9.7,3.4,5,8.8,2h62.9c5.6,2.5,7.5,7,7.3,12.9c-0.2,5.2,0,10.5,0,15.6h132.4c0-5.4,0.2-10.4,0-15.4
				c-0.2-6,1.7-10.7,7.6-13.2h62c5.9,2.4,7.8,7.1,7.6,13.2c-0.2,5.1,0,10.2,0,15.4H421c0-5.4,0.2-10.6,0-15.7
				C420.7,9,422.6,4.5,428.2,2h69.8v69.8c-2.6,5.8-7.3,7.4-13.3,7.4c-16.8-0.2-33.6,0-50.3-0.1c-10.2,0-13.3-3.1-13.3-13.3V50.6
				h-78.7c77.6,40.1,119.6,103.2,127.1,189.8c4.9,0,9.9,0.3,14.8-0.1c6-0.4,10.7,1.4,13.7,6.8L498,310.1L498,310.1z M269,21.6h-37.8
				v37.7H269V21.6z M59.3,59.4V21.6H21.8v37.7H59.3z M478.3,59.4V21.6h-37.4v37.7H478.3z M59.3,297.8v-37.6H21.7v37.6H59.3z
				 M440.7,259.9v37.9h37.6v-37.9H440.7z"/>
			<path class="st1" d="M259.9,152.5v69.9c18.1,8.7,25.9,22.5,22.2,38.9c-1.6,7.3-5.7,13.8-11.5,18.4c-5.8,4.7-13.1,7.2-20.5,7.2
				c-7.5,0-14.7-2.5-20.5-7.2c-5.8-4.7-9.9-11.2-11.5-18.4c-3.8-16.4,4.1-30.2,22.2-38.9v-70c-1.1,1.5-1.8,2.4-2.4,3.4
				c-5.9,10.7-11.8,21.5-17.8,32.2c-0.9,1.7-2,3.3-3.2,4.9c-3,3.5-6.9,4.1-11,2.3c-2-0.8-3.6-2.3-4.5-4.2s-1.3-4.1-0.8-6.1
				c0.6-2.2,1.5-4.3,2.6-6.2c12.3-22.3,24.6-44.7,36.8-67c2.3-4.2,4.9-7.8,10.1-7.8c5.3,0,7.8,3.7,10,7.9
				c28.3,51.4,56.6,102.8,84.9,154.3c4.3,7.8,4,10.7-2.5,17c-18.4,17.7-31.5,40.1-37.8,64.8c-0.4,1.5-0.7,3.1-1.1,5.1
				c3.4,0,6.4-0.1,9.5,0c13.4,0.6,23.7,8.8,27.3,21.5c3.4,11.9-1.3,24.1-11.9,31.8c-0.8,0.7-1.5,1.6-2,2.6c-0.5,1-0.7,2.1-0.8,3.2
				c-0.2,24-0.1,48.1-0.1,72.2c0,1.3,0.1,2.6,0,3.9c-0.4,5.9-4.5,10.1-9.8,10c-5.3-0.1-9.1-4.1-9.5-9.8c-0.1-1.5,0-2.9,0-4.4v-72.8
				H193.8v73.3c0.1,1.6,0,3.2-0.2,4.9c-0.2,2.4-1.3,4.6-3.1,6.2c-1.7,1.6-4.1,2.5-6.4,2.5c-2.4,0-4.7-0.9-6.4-2.5
				c-1.8-1.6-2.9-3.8-3.1-6.1c-0.2-1.6-0.2-3.2-0.2-4.9v-72.7c0-2.5-0.3-4.3-2.8-6c-10.7-7.1-15.3-19.5-12.1-31.2
				c3.4-12.6,13.5-20.9,26.5-21.8c3.3-0.2,6.7,0,10.4,0c-4.6-21.4-14.3-41.4-28.3-58.2c-3.7-4.5-7.9-8.5-11.9-12.7
				c-4.8-5-5.4-8.4-2.2-14.3c4.3-7.9,8.6-15.9,13.1-23.7c3.5-6.2,9-8.1,14.1-5.1c4.9,2.8,6.1,8.3,2.9,14.4
				c-2.8,5.3-5.9,10.4-8.5,15.7c-0.6,1.3-0.7,4,0.2,4.9c20.6,21.9,34.7,49.1,40.5,78.7h67.4c3.5-17.6,9.2-34.4,18.8-49.5
				c6.3-9.9,13.8-19,21-28.3c1.5-1.9,2.5-3.3,1-5.8c-21.2-38.2-42.3-76.5-63.3-114.8C260.8,153.5,260.4,153,259.9,152.5L259.9,152.5
				z M250.5,372.1H191c-1.9-0.1-3.9,0.1-5.8,0.5c-2,0.5-3.8,1.7-5.1,3.3c-1.3,1.7-2,3.7-2,5.8s0.7,4.1,2,5.8
				c1.3,1.7,3.1,2.9,5.1,3.4c1.9,0.4,3.8,0.6,5.7,0.5H309c2.3,0.1,4.5-0.2,6.7-0.8c4.1-1.3,6.2-4.5,6.2-8.8c0-4.3-2.1-7.5-6.1-8.9
				c-2.2-0.6-4.4-0.9-6.7-0.8C289.6,372.1,270.1,372.1,250.5,372.1L250.5,372.1z M263.5,254.1c0-3.6-1.4-7-3.9-9.6
				c-2.5-2.5-6-4-9.6-4c-3.6,0-7,1.4-9.6,4c-2.5,2.5-4,6-4,9.6s1.4,7,4,9.6c2.5,2.5,6,4,9.6,4s7-1.4,9.6-4
				C262.1,261.1,263.6,257.7,263.5,254.1L263.5,254.1z"/>
			<path class="st1" d="M202.1,217.3c-0.1,2.5-1.1,4.9-2.9,6.7c-1.8,1.8-4.2,2.7-6.8,2.8c-2.5-0.1-4.9-1.1-6.7-2.9
				c-1.7-1.8-2.7-4.3-2.7-6.8c0.1-2.5,1.1-4.9,2.9-6.7c1.8-1.8,4.2-2.8,6.7-2.8c2.5,0.1,4.9,1.2,6.7,3
				C201.1,212.4,202.1,214.8,202.1,217.3L202.1,217.3z"/>
		</g>
	</g>
</g>
</svg>
