<?xml version="1.0" encoding="utf-8"?>
<!-- Generator: Adobe Illustrator 27.0.0, SVG Export Plug-In . SVG Version: 6.00 Build 0)  -->
<svg version="1.1" id="Layer_1" xmlns="http://www.w3.org/2000/svg" xmlns:xlink="http://www.w3.org/1999/xlink" x="0px" y="0px"
	 viewBox="0 0 500 500" style="enable-background:new 0 0 500 500;" xml:space="preserve">
<style type="text/css">
	.st0{fill:#FF7A00;}
</style>
<path class="st0" d="M495.2,424.4c-2.2,10.3-4.8,20.3-10.2,29.4c-14.7,24.6-43.4,37.7-70.2,31.7c-28.3-6.3-48.8-29.3-52.8-58.8
	c-3.1-22.7,3-42.3,18.1-58.7c1.1-1.1,1.9-2.4,2.4-3.9c0.5-1.4,0.8-3,0.7-4.6c-0.1-52-0.1-104,0-156c0-24.5,13.1-38.2,36.5-38.2
	c7.5,0,15-0.2,22.5,0C460,166,473,179,474.4,197.7c0.2,2.3,0.2,4.7,0.2,7c0,52,0,104-0.1,156c-0.1,1.6,0.2,3.3,0.8,4.8
	c0.6,1.5,1.4,2.9,2.5,4.1c8.7,9.9,14.5,22.2,16.5,35.5c0.3,1.1,0.6,2.2,1,3.2L495.2,424.4L495.2,424.4z M402.3,351.7
	c18-7.2,35.3-6.9,53,0.7V202.9c0-12.5-4.6-17.4-16.4-17.4h-20.1c-11.9,0-16.5,4.9-16.5,17.2V351.7z M428.1,466.7
	c26,0,47.9-22.5,48-49.4c0.1-27.9-21.4-50.9-47.6-50.9c-12.7,0-25,5.3-34,14.7c-9,9.4-14.1,22.2-14.2,35.6
	C380.2,443.9,402,466.7,428.1,466.7L428.1,466.7L428.1,466.7z"/>
<path class="st0" d="M370.1,58.7c-4.4-5.7-8.1-10.5-11.8-15.3c-4.7-6-6.6-12.6-3.2-20c3.3-7.1,9.1-9.8,16.4-9.8
	c24.6-0.2,49.2-0.5,73.8-0.7c14.6-0.1,22.9,11,19.7,26c-5.2,24.8-10.5,49.6-15.7,74.3c-1.6,7.8-5.3,13.7-13.1,15.5
	c-7.6,1.9-13.3-1.6-17.9-7.7c-3.6-4.8-7.4-9.6-11.3-14.6c-7.9,6.7-15.4,13.4-23.3,19.5c-10.5,8.2-21.2,16.1-31.9,23.9
	c-4.9,3.6-10.6,2.4-13.6-2.1c-3.2-4.7-2-10.3,3-14.5c0.6-0.5,1.3-0.9,1.9-1.4c16.8-13.3,33.7-26.5,50.2-40.1
	c10.2-8.4,20.6-7.7,29,2.6c2.8,3.4,5.4,7,8.8,11.3c5.2-24.6,10.3-48.4,15.3-72.2h-70.9l8,10.6c8.4,11.1,7.2,22.1-3.3,31
	c-48.7,41.3-102.9,72.9-159.6,100.3C160.9,204.3,99,227,35.7,245.8c-2.5,0.6-4.9,1.6-7.1,2.8c-3.7,2.2-5.4,5.8-4.3,10.2
	c1.1,4.4,4,7.2,8.6,7.1c1.6-0.1,3.2-0.3,4.7-0.8c79.5-21.2,156.5-49.5,230.1-87.6c1.7-0.9,3.5-1.6,5.3-2.2c2.1-0.7,4.3-0.6,6.3,0.3
	c2,0.9,3.7,2.4,4.7,4.4c1,2,1.3,4.3,0.9,6.5c-0.4,2.2-1.6,4.2-3.3,5.6c-1.7,1.3-3.5,2.4-5.3,3.3c-52.9,27.4-107.8,50.2-164.2,68.4
	c-24,7.8-48.4,14.7-72.7,21.4c-12.5,3.5-25.3-3.1-31.2-14.8c-6-11.9-4.1-26.5,5.8-35.2c4.5-3.9,10.3-6.7,16-8.4
	c49.8-15,98.9-32.3,146.7-53.2c52.7-22.9,103.7-49.3,151-82.8C341.9,80.8,355.6,69.7,370.1,58.7L370.1,58.7z"/>
<path class="st0" d="M259.5,362.9c0-28.6,0.5-57.2-0.2-85.7c-0.5-22.5,15.2-38.4,35.8-37.4c7.3,0.3,14.7,0,22,0.1
	c19.7,0.3,33.4,14.5,33.5,35.1c0.1,59.5,0.1,119,0,178.5c0,8.7-3.4,12.3-11.5,12.4c-22.6,0.1-45.3,0.1-68,0
	c-8.5,0-11.7-3.5-11.7-12.6C259.4,423.1,259.4,393,259.5,362.9L259.5,362.9z M331.1,445.6c0.2-0.6,0.3-1.3,0.3-2v-170
	c0-8.1-5.6-13.6-13.5-13.8c-7.9-0.2-15.6,0-23.4,0c-11.2,0-15.9,5-15.9,16.8v168.9L331.1,445.6L331.1,445.6z"/>
<path class="st0" d="M226.9,391.5v60.7c0,10.2-3.2,13.6-12.8,13.6H148c-9.1,0-12.5-3.4-12.6-12.9c0-40.8-0.1-81.6,0-122.4
	c0.1-21,11.9-34.4,31.7-35.9c9.5-0.7,19.1-0.2,28.7,0c15.9,0.3,31.1,13.9,31.1,35.6C226.9,350.7,226.9,371.1,226.9,391.5
	L226.9,391.5z M207.5,445.5c0.1-1.2,0.3-2.2,0.3-3.1V329.5c0-9.4-5.3-14.8-14.4-15c-7.3-0.2-14.7-0.1-22,0
	c-12.1,0-16.7,4.8-16.7,17.7v113.3L207.5,445.5L207.5,445.5z"/>
<path class="st0" d="M103,411.5c0,13.7,0,27.4,0,41.1c0,10-3.2,13.2-12.7,13.2H24.2c-9.4,0-12.7-3.4-12.7-13.3v-81.3
	c0-21.6,12.2-35.5,32.6-36.6c10-0.5,20.1-0.3,30.1,0.4c14.8,1,27.5,14.2,28.2,29.7c0.6,15.5,0.1,31.1,0.1,46.6L103,411.5L103,411.5z
	 M83.6,445.5c0-26.3,0.2-52-0.1-77.7c-0.1-8-5.5-12.9-13.6-13.1c-7.8-0.3-15.6-0.1-23.4-0.1c-10.8,0.1-15.8,5.3-15.8,16.6v69.7
	c0,1.5,0.2,2.9,0.3,4.6L83.6,445.5L83.6,445.5z"/>
<path class="st0" d="M422,423.4c4.8-7.8,9.1-15.4,13.9-22.6c2.6-3.6,5.6-6.8,9-9.7c4.7-4.1,10.1-3.7,13.7,0.6c0.8,1,1.5,2.1,1.9,3.3
	c0.4,1.2,0.6,2.5,0.5,3.8c-0.1,1.3-0.4,2.6-1,3.7c-0.6,1.2-1.3,2.2-2.3,3c-8.6,8.2-14.3,18.2-18.5,29.4c-3.2,8.5-10.9,11.9-19.2,9
	c-5.9-2.1-11.7-4.4-17.5-6.8c-5.8-2.4-8.4-7.9-6.5-13.2c1.9-5.3,7-7.6,13.1-5.6c2.3,0.8,4.5,1.8,6.7,2.6
	C418.1,422,420.3,422.8,422,423.4L422,423.4z"/>
</svg>
