<?xml version="1.0" encoding="utf-8"?>
<!-- Generator: Adobe Illustrator 27.0.0, SVG Export Plug-In . SVG Version: 6.00 Build 0)  -->
<svg version="1.1" id="Layer_1" xmlns="http://www.w3.org/2000/svg" xmlns:xlink="http://www.w3.org/1999/xlink" x="0px" y="0px"
	 viewBox="0 0 500 500" style="enable-background:new 0 0 500 500;" xml:space="preserve">
<style type="text/css">
	.st0{clip-path:url(#SVGID_00000124150030014163616120000000900748717623979137_);}
	.st1{fill:#FF7A00;}
</style>
<g>
	<defs>
		<rect id="SVGID_1_" x="11" y="11" width="478" height="478"/>
	</defs>
	<clipPath id="SVGID_00000074429859499462843770000014223683509485712058_">
		<use xlink:href="#SVGID_1_"  style="overflow:visible;"/>
	</clipPath>
	<g style="clip-path:url(#SVGID_00000074429859499462843770000014223683509485712058_);">
		<g>
			<path class="st1" d="M278.4,11c7.6,1.1,15.2,1.9,22.8,3.3c37.1,6.9,71.4,24.6,98.6,50.9c27.2,26.3,46,59.9,54.1,96.8
				c20.8,94.9-32.2,191.2-124.1,222.8c-60.6,20.8-118.4,13-172.2-22.3l-3.3-2.1l-19.2,19.1c3.7,5,0,8.6-3.8,12.3
				c-6.5,6.3-12.7,12.7-19.2,19.1c-3.7,3.6-7.4,4.1-10.3,1.3c-2.9-2.8-2.6-6.8,1.2-10.6c5.8-5.8,11.7-11.7,17.4-17.3l-35.1-35.1
				c-0.6,0.5-1.5,1.3-2.3,2.1c-17.1,17.1-34.3,34.1-51.2,51.3c-13.4,13.6-8.5,35.6,9.3,41.4c9.6,3.2,18.1,0.9,25.4-5.9
				c5.3-5,10.3-10.3,15.5-15.4c3.7-3.7,7.4-4.1,10.3-1.3c3,2.8,2.6,6.9-1.2,10.7c-4.8,4.9-9.6,9.7-14.5,14.5
				c-10.7,10.5-23.4,14.6-38,10.3C24,452.6,15,442.6,11.7,427.7c-0.2-0.5-0.4-1.1-0.7-1.5v-11.4c2.4-12,10.1-20.5,18.6-28.7
				c16.8-16.3,33.2-33,49.8-49.7c3.3-3.3,6.5-4.9,10.4-2.2l19.2-19.4c-0.3-0.4-0.9-1.5-1.6-2.6C82.2,275.1,71,234.2,74.1,189.5
				c2.2-32.4,12.7-63.7,30.5-90.9c2.9-4.4,6.3-5.6,9.8-3.6c3.5,2.1,4.2,6.1,1.3,10.6C95.3,137.4,85.4,172,87,209.6
				c2.2,53.9,24.1,98.6,65.8,132.6c71.9,58.5,173.3,53.4,239.3-11.6c29.3-28.8,46.7-64,51.5-104.9c9.9-84.1-36.7-160.8-115.4-190.5
				c-66.8-25.3-144.8-6.7-193.4,46c-0.8,0.8-1.6,1.7-2.3,2.6c-3.1,3-7,3.4-9.7,0.9c-2.7-2.5-3.1-6.5,0.1-9.7
				c7.3-7.3,14.5-14.8,22.5-21.3c29.9-24.6,66.7-39.2,105.3-42c1.1-0.2,2.3-0.4,3.4-0.7L278.4,11L278.4,11z M100.5,343.3l24.9,25
				l16-16l-25.1-25.2c-4,4.1-8.9,9-13.8,14C101.7,341.9,100.8,342.8,100.5,343.3L100.5,343.3z"/>
			<path class="st1" d="M262.6,48.3c81.2,0.1,146.5,57,157.2,134c9.1,65.8-25.3,130.9-84.7,160c-2.4,1.2-5.2,1.4-7.7,0.7
				c-4.3-1.6-4.7-7.5-1.2-10.5c1.2-0.9,2.4-1.6,3.8-2.2c52.1-26.6,82.4-80.8,77.7-138.9c-2.9-34.1-18.1-66-42.7-89.8
				c-24.6-23.8-56.9-38-91.1-39.8c-34.2-1.9-67.9,8.7-94.9,29.7c-27,21-45.6,51.1-52.2,84.6c-15.5,77.6,36.6,153.6,114.5,167.2
				c20.1,3.5,40.8,2.8,60.6-2.2c2.1-0.5,4.8-1.2,6.3-0.2c2.1,1.3,3.6,3.5,4.2,5.9c0.5,3.4-1.9,5.7-5.3,6.4
				c-8.1,1.7-16.2,3.8-24.4,4.5c-50.8,4.4-94.6-11.3-129.7-48.5c-30.6-32.5-45-71.7-41.2-116.2c5.6-65.6,40.2-110.7,101.1-135.3
				C228.5,51.4,245.5,48.2,262.6,48.3L262.6,48.3z"/>
			<path class="st1" d="M330.2,160.1c8.6,0,17,2.5,24.2,7.2c7.1,4.8,12.7,11.5,16.1,19.4c3.3,7.9,4.2,16.7,2.5,25.1
				c-1.7,8.4-5.8,16.2-11.8,22.3c-6.1,6.1-13.8,10.2-22.2,11.9c-8.4,1.7-17.1,0.8-25.1-2.4c-7.9-3.3-14.7-8.9-19.5-16
				c-4.8-7.1-7.3-15.5-7.3-24.1c0-5.7,1.1-11.3,3.3-16.6c2.2-5.2,5.4-10,9.4-14.1c4-4,8.8-7.2,14-9.4S324.5,160.1,330.2,160.1
				L330.2,160.1z M300.2,203.5c0,6,1.8,11.8,5.2,16.7c3.3,4.9,8.1,8.8,13.6,11c5.5,2.2,11.6,2.8,17.5,1.6c5.9-1.2,11.2-4.1,15.4-8.3
				c4.2-4.3,7-9.6,8.2-15.5c1.1-5.9,0.5-11.9-1.8-17.4c-2.3-5.5-6.2-10.2-11.2-13.5c-5-3.3-10.8-5-16.8-5c-8,0.1-15.7,3.3-21.3,9
				C303.3,187.8,300.2,195.5,300.2,203.5L300.2,203.5z"/>
			<path class="st1" d="M195.6,160.1c8.5,0.2,16.8,3.1,23.5,8.3c3.6,2.6,4.3,6.4,2.1,9.5c-2.2,3.1-5.9,3.7-9.6,1.2
				c-6-4-12.3-6.8-19.7-5.5c-2.9,0.5-5.5,1.6-7.8,3.4c-4.8,4.1-3.5,10.9,2.3,13.3c7.1,3,14.3,5.6,21.4,8.8c8,3.6,14.5,8.8,16.6,17.9
				c2.9,12.9-6.6,26-21,28.9c-14.2,2.8-26.5-1.4-36.8-11.4c-3.2-3.1-3.4-6.9-0.8-9.7c2.7-2.9,6.5-2.9,10,0.4
				c7.2,6.7,15.5,9.9,25.2,7.5c3.2-0.9,6.1-2.7,8.3-5.1c3.8-4,3.3-9.2-0.9-12.7c-2.4-1.9-5-3.5-7.8-4.7c-6.3-2.7-12.6-5.3-19-7.7
				c-7.6-2.9-12.2-8.4-13.2-16.4c-1.2-8.9,2.2-16,9.5-21.1C183.1,161.2,189.2,160,195.6,160.1L195.6,160.1z"/>
			<path class="st1" d="M249.9,174.1v22.9h21.5c4.1,0.2,6.8,2.8,6.9,6.4c0,0.9-0.2,1.7-0.5,2.6c-0.3,0.8-0.8,1.6-1.5,2.2
				c-0.6,0.6-1.4,1.1-2.2,1.4c-0.8,0.3-1.7,0.5-2.6,0.5c-5.5,0.2-11.1,0.1-16.6,0.1H250v23.3h9.4c4.9,0,9.9-0.1,14.9,0.1
				c0.8,0,1.7,0.2,2.5,0.5c0.8,0.3,1.5,0.8,2.1,1.4c0.6,0.6,1,1.4,1.3,2.2c0.3,0.8,0.4,1.6,0.3,2.5c-0.2,3.8-2.3,6.1-6,6.2
				c-10.5,0.2-21,0.2-31.4,0c-4.3-0.1-6.3-2.8-6.3-7.8c0-9.3,0-18.7,0-27.9v-41.5c0-6.5,2.2-8.6,8.6-8.7h27.5c4.9,0,7.6,2.4,7.6,6.4
				c0,4-2.7,6.6-7.5,6.6c-7.4,0.1-14.8,0.1-22.3,0.2C250.5,173.7,250.3,173.8,249.9,174.1L249.9,174.1z"/>
		</g>
	</g>
</g>
</svg>
